<svg xmlns="http://www.w3.org/2000/svg" width="3.6in" height="3.6in" viewBox="0 0 256 256"><path d="M234.7 200.2a8.8 8.8 0 0 1 1.6 9.3 8.6 8.6 0 0 1-7.9 5.2c-20 0-36-7.6-46.6-14.4a101.6 101.6 0 0 1-22.3 2.5c-32.1 0-59.6-15.1-71.3-36.4-3.6-.5-7.1-1.1-10.5-1.9C67.1 171.5 51 179 31 179a8.8 8.8 0 0 1-7.9-5.2 8.6 8.6 0 0 1 1.7-9.3 104.8 104.8 0 0 0 14-20.5c-10.2-10.1-16.4-22.8-16.4-36.6 0-32.9 34.7-59.6 77.5-59.6 32.2 0 59.7 15.1 71.4 36.6 37.2 4.4 65.7 29 65.7 58.8 0 13.8-6.2 26.5-16.4 36.6a93.1 93.1 0 0 0 14.1 20.4zm-153-53.1a85.4 85.4 0 0 0 18.2 2.1c32.3 0 59.6-19.2 59.6-41.8s-27.3-41.7-59.6-41.7-59.6 19.1-59.6 41.7c0 10.7 6 18.9 11.1 23.9l9.2 9.1-5.8 11.6c-.9 1.9-1.9 3.7-2.9 5.5a74.8 74.8 0 0 0 16-8l6.4-4.1zm137.4-3.9c0-18.3-18-34.1-42-39.5.1 1.2.3 2.5.3 3.7 0 30.2-29.1 55-66.8 59 10.8 11 28.8 18.5 48.9 18.5a80.9 80.9 0 0 0 18.3-2.1l7.4-1.7 6.3 4.1a75.5 75.5 0 0 0 16.1 8c-1-1.7-2-3.6-3-5.5l-5.8-11.6 9.2-9.1c5.1-5 11.1-13.1 11.1-23.8z"/></svg>