<svg xmlns="http://www.w3.org/2000/svg" width="3.6in" height="3.6in" viewBox="0 0 256 256"><path d="M237.2 163.2a115 115 0 0 1-25.3 43.8 5.6 5.6 0 0 1-6.9 1.1l-19.7-11.4a87.8 87.8 0 0 1-28.1 16.2v22.8a5.5 5.5 0 0 1-4.4 5.4 116.2 116.2 0 0 1-50.5 0 5.5 5.5 0 0 1-4.4-5.4v-22.8a87.8 87.8 0 0 1-28.1-16.2l-19.7 11.4a5.7 5.7 0 0 1-6.9-1.1 115 115 0 0 1-25.3-43.8 5.7 5.7 0 0 1 2.6-6.5l19.7-11.4a88.2 88.2 0 0 1 0-32.4l-19.7-11.4a5.5 5.5 0 0 1-2.6-6.5 115 115 0 0 1 25.3-43.8 5.6 5.6 0 0 1 6.9-1.1l19.7 11.4a87.8 87.8 0 0 1 28.1-16.2V22.5a5.5 5.5 0 0 1 4.3-5.4 116.7 116.7 0 0 1 50.6 0 5.5 5.5 0 0 1 4.3 5.4v22.7a85.6 85.6 0 0 1 28.2 16.3L205 50.1a5.5 5.5 0 0 1 6.8 1.1 115.6 115.6 0 0 1 25.4 43.7 5.7 5.7 0 0 1-2.6 6.5l-19.7 11.4a88.8 88.8 0 0 1 0 32.5l19.7 11.4a5.7 5.7 0 0 1 2.6 6.5zM164.5 129a37 37 0 1 0-37 37.1 37 37 0 0 0 37-37.1z"/></svg>