<svg xmlns="http://www.w3.org/2000/svg"><symbol id="cart" viewBox="0 0 256 256"><path d="M170.4 172c21.9-38 97.2-71.8-26.2-69.9C25.7 103.8 18.7 67.8 6 48.7c30.3 32 58.8 36.7 170.8 36.7s62.7 24.9-6.4 86.6zm-84.7 30.4a17 17 0 1 1-17-17 17 17 0 0 1 17 17zm60.2 16.9a17 17 0 1 1 16.9-16.9 17 17 0 0 1-16.9 16.9z"/><path d="M38.2 120.5h16.7l11.6 37.1 11.4-37.1h16.2L74.9 172H57.7zm60.9 0H120l8.1 31.3 8-31.3h21V172H144v-39.3L134 172h-11.8l-10.1-39.3V172h-13z"/></symbol><symbol id="search" viewBox="0 0 256 256"><path d="M238 218.7l-11.9 11.9a10 10 0 0 1-14.3 0l-42.1-42.1a10 10 0 0 1-3-7.1v-6.9a87.9 87.9 0 1 1 15.2-15.2h6.9a10.1 10.1 0 0 1 7.2 2.9l42.1 42.1a10.2 10.2 0 0 1-.1 14.4zm-71.3-113.4a54 54 0 1 0-54 54 54.1 54.1 0 0 0 54-54z"/></symbol><symbol id="facebook" viewBox="0 0 256 256"><path d="M253.5 227.5a26.9 26.9 0 0 1-26.9 26.9h-47.8v-99.3h34l4.8-37.9h-38.8V93c0-11 3-18.5 18.8-18.5h20V40.7a255 255 0 0 0-29.2-1.5c-28.9 0-48.8 17.6-48.8 50.1v27.9h-34v37.9h34.1v99.3H29.3a27 27 0 0 1-26.9-26.9V30.2A27 27 0 0 1 29.3 3.3h197.3a26.9 26.9 0 0 1 26.9 26.9z"/></symbol><symbol id="close" viewBox="0 0 256 256"><path d="M234.1 191.5a20 20 0 0 1 0 28.4l-14.2 14.2a20 20 0 0 1-28.4 0l-63.9-63.9-63.9 63.9a20 20 0 0 1-28.4 0l-14.2-14.2a20.2 20.2 0 0 1 0-28.4L85 127.6 21.1 63.7a20.2 20.2 0 0 1 0-28.4l14.2-14.2a20.2 20.2 0 0 1 28.4 0L127.6 85l63.9-63.9a20.2 20.2 0 0 1 28.4 0l14.2 14.2a20 20 0 0 1 0 28.4l-63.9 63.9z"/></symbol><symbol id="comments" viewBox="0 0 256 256"><path d="M234.7 200.2a8.8 8.8 0 0 1 1.6 9.3 8.6 8.6 0 0 1-7.9 5.2c-20 0-36-7.6-46.6-14.4a101.6 101.6 0 0 1-22.3 2.5c-32.1 0-59.6-15.1-71.3-36.4-3.6-.5-7.1-1.1-10.5-1.9C67.1 171.5 51 179 31 179a8.8 8.8 0 0 1-7.9-5.2 8.6 8.6 0 0 1 1.7-9.3 104.8 104.8 0 0 0 14-20.5c-10.2-10.1-16.4-22.8-16.4-36.6 0-32.9 34.7-59.6 77.5-59.6 32.2 0 59.7 15.1 71.4 36.6 37.2 4.4 65.7 29 65.7 58.8 0 13.8-6.2 26.5-16.4 36.6a93.1 93.1 0 0 0 14.1 20.4zm-153-53.1a85.4 85.4 0 0 0 18.2 2.1c32.3 0 59.6-19.2 59.6-41.8s-27.3-41.7-59.6-41.7-59.6 19.1-59.6 41.7c0 10.7 6 18.9 11.1 23.9l9.2 9.1-5.8 11.6c-.9 1.9-1.9 3.7-2.9 5.5a74.8 74.8 0 0 0 16-8l6.4-4.1zm137.4-3.9c0-18.3-18-34.1-42-39.5.1 1.2.3 2.5.3 3.7 0 30.2-29.1 55-66.8 59 10.8 11 28.8 18.5 48.9 18.5a80.9 80.9 0 0 0 18.3-2.1l7.4-1.7 6.3 4.1a75.5 75.5 0 0 0 16.1 8c-1-1.7-2-3.6-3-5.5l-5.8-11.6 9.2-9.1c5.1-5 11.1-13.1 11.1-23.8z"/></symbol><symbol id="contact" viewBox="0 0 256 256"><path d="M218 59.7c0 88.4-71.7 160-159.9 160a8.3 8.3 0 0 1-8.1-6.5l-8.3-35.8a8.4 8.4 0 0 1 4.9-9.5l38.6-16.6a8.4 8.4 0 0 1 9.6 2.4l17.1 20.9a127.3 127.3 0 0 0 61.1-61.1l-20.9-17.1a8.2 8.2 0 0 1-2.4-9.6l16.6-38.6a8.1 8.1 0 0 1 9.4-4.8l35.9 8.3a8.2 8.2 0 0 1 6.4 8z"/></symbol><symbol id="star-filled" viewBox="0 0 256 256"><path d="M140.2 28.3l27.4 55.5 61.3 8.9a13.4 13.4 0 0 1 7.4 22.9L192 158.9l10.5 61c1.9 11-9.8 19.2-19.5 14.1l-54.8-28.8L73.4 234a13.4 13.4 0 0 1-19.5-14.1l10.5-61L20 115.6a13.5 13.5 0 0 1 7.5-22.9l61.2-8.9 27.4-55.5a13.4 13.4 0 0 1 24.1 0z"/></symbol><symbol id="star-no-fill" viewBox="0 0 256 256"><path d="M237.6 119.1L193 162.5l10.5 61.3A13.4 13.4 0 0 1 184 238l-55.1-28.9L73.8 238a13.4 13.4 0 0 1-19.5-14.2l10.5-61.3-44.5-43.4a13.5 13.5 0 0 1 7.4-23l61.6-9 27.5-55.8a13.5 13.5 0 0 1 24.2 0l27.5 55.8 61.6 9a13.5 13.5 0 0 1 7.5 23zm-23.9-5l-58.6-8.5-26.2-53.1-26.2 53.1-58.6 8.5 42.4 41.3-10 58.3 52.4-27.5 52.4 27.5-10-58.3z"/></symbol><symbol id="settings" viewBox="0 0 256 256"><path d="M237.2 163.2a115 115 0 0 1-25.3 43.8 5.6 5.6 0 0 1-6.9 1.1l-19.7-11.4a87.8 87.8 0 0 1-28.1 16.2v22.8a5.5 5.5 0 0 1-4.4 5.4 116.2 116.2 0 0 1-50.5 0 5.5 5.5 0 0 1-4.4-5.4v-22.8a87.8 87.8 0 0 1-28.1-16.2l-19.7 11.4a5.7 5.7 0 0 1-6.9-1.1 115 115 0 0 1-25.3-43.8 5.7 5.7 0 0 1 2.6-6.5l19.7-11.4a88.2 88.2 0 0 1 0-32.4l-19.7-11.4a5.5 5.5 0 0 1-2.6-6.5 115 115 0 0 1 25.3-43.8 5.6 5.6 0 0 1 6.9-1.1l19.7 11.4a87.8 87.8 0 0 1 28.1-16.2V22.5a5.5 5.5 0 0 1 4.3-5.4 116.7 116.7 0 0 1 50.6 0 5.5 5.5 0 0 1 4.3 5.4v22.7a85.6 85.6 0 0 1 28.2 16.3L205 50.1a5.5 5.5 0 0 1 6.8 1.1 115.6 115.6 0 0 1 25.4 43.7 5.7 5.7 0 0 1-2.6 6.5l-19.7 11.4a88.8 88.8 0 0 1 0 32.5l19.7 11.4a5.7 5.7 0 0 1 2.6 6.5zM164.5 129a37 37 0 1 0-37 37.1 37 37 0 0 0 37-37.1z"/></symbol></svg>